<?xml version="1.0" encoding="utf-8" standalone="no"?>
<!DOCTYPE svg PUBLIC "-//W3C//DTD SVG 1.1//EN"
  "http://www.w3.org/Graphics/SVG/1.1/DTD/svg11.dtd">
<svg xmlns:xlink="http://www.w3.org/1999/xlink" width="432pt" height="360pt" viewBox="0 0 432 360" xmlns="http://www.w3.org/2000/svg" version="1.1">
 <metadata>
  <rdf:RDF xmlns:dc="http://purl.org/dc/elements/1.1/" xmlns:cc="http://creativecommons.org/ns#" xmlns:rdf="http://www.w3.org/1999/02/22-rdf-syntax-ns#">
   <cc:Work>
    <dc:type rdf:resource="http://purl.org/dc/dcmitype/StillImage"/>
    <dc:date>2026-09-28T16:22:20.488794</dc:date>
    <dc:format>image/svg+xml</dc:format>
    <dc:creator>
     <cc:Agent>
      <dc:title>Matplotlib v3.10.9, https://matplotlib.org/</dc:title>
     </cc:Agent>
    </dc:creator>
   </cc:Work>
  </rdf:RDF>
 </metadata>
 <defs>
  <style type="text/css">*{stroke-linejoin: round; stroke-linecap: butt}</style>
 </defs>
 <g id="figure_1">
  <g id="patch_1">
   <path d="M 0 360 
L 432 360 
L 432 0 
L 0 0 
z
" style="fill: #ffffff"/>
  </g>
  <g id="axes_1">
   <g id="patch_2">
    <path d="M 60.595 307.305 
L 416.88 307.305 
L 416.88 15.12 
L 60.595 15.12 
z
" style="fill: #ffffff"/>
   </g>
   <g id="matplotlib.axis_1">
    <g id="xtick_1">
     <g id="line2d_1">
      <path d="M 76.789773 307.305 
L 76.789773 15.12 
" clip-path="url(#p167122d4b7)" style="fill: none; stroke: #b0b0b0; stroke-width: 0.8; stroke-linecap: square"/>
     </g>
     <g id="line2d_2">
      <defs>
       <path id="m26b3ce979d" d="M 0 0 
L 0 3.5 
" style="stroke: #000000; stroke-width: 0.8"/>
      </defs>
      <g>
       <use xlink:href="#m26b3ce979d" x="76.789773" y="307.305" style="stroke: #000000; stroke-width: 0.8"/>
      </g>
     </g>
     <g id="text_1">
      <text style="font-size: 13px; font-family: 'TeX Gyre Termes'; text-anchor: middle" x="76.789773" y="323.183594" transform="rotate(-0 76.789773 323.183594)">0.00</text>
     </g>
    </g>
    <g id="xtick_2">
     <g id="line2d_3">
      <path d="M 141.568864 307.305 
L 141.568864 15.12 
" clip-path="url(#p167122d4b7)" style="fill: none; stroke: #b0b0b0; stroke-width: 0.8; stroke-linecap: square"/>
     </g>
     <g id="line2d_4">
      <g>
       <use xlink:href="#m26b3ce979d" x="141.568864" y="307.305" style="stroke: #000000; stroke-width: 0.8"/>
      </g>
     </g>
     <g id="text_2">
      <text style="font-size: 13px; font-family: 'TeX Gyre Termes'; text-anchor: middle" x="141.568864" y="323.183594" transform="rotate(-0 141.568864 323.183594)">0.05</text>
     </g>
    </g>
    <g id="xtick_3">
     <g id="line2d_5">
      <path d="M 206.347955 307.305 
L 206.347955 15.12 
" clip-path="url(#p167122d4b7)" style="fill: none; stroke: #b0b0b0; stroke-width: 0.8; stroke-linecap: square"/>
     </g>
     <g id="line2d_6">
      <g>
       <use xlink:href="#m26b3ce979d" x="206.347955" y="307.305" style="stroke: #000000; stroke-width: 0.8"/>
      </g>
     </g>
     <g id="text_3">
      <text style="font-size: 13px; font-family: 'TeX Gyre Termes'; text-anchor: middle" x="206.347955" y="323.183594" transform="rotate(-0 206.347955 323.183594)">0.10</text>
     </g>
    </g>
    <g id="xtick_4">
     <g id="line2d_7">
      <path d="M 271.127045 307.305 
L 271.127045 15.12 
" clip-path="url(#p167122d4b7)" style="fill: none; stroke: #b0b0b0; stroke-width: 0.8; stroke-linecap: square"/>
     </g>
     <g id="line2d_8">
      <g>
       <use xlink:href="#m26b3ce979d" x="271.127045" y="307.305" style="stroke: #000000; stroke-width: 0.8"/>
      </g>
     </g>
     <g id="text_4">
      <text style="font-size: 13px; font-family: 'TeX Gyre Termes'; text-anchor: middle" x="271.127045" y="323.183594" transform="rotate(-0 271.127045 323.183594)">0.15</text>
     </g>
    </g>
    <g id="xtick_5">
     <g id="line2d_9">
      <path d="M 335.906136 307.305 
L 335.906136 15.12 
" clip-path="url(#p167122d4b7)" style="fill: none; stroke: #b0b0b0; stroke-width: 0.8; stroke-linecap: square"/>
     </g>
     <g id="line2d_10">
      <g>
       <use xlink:href="#m26b3ce979d" x="335.906136" y="307.305" style="stroke: #000000; stroke-width: 0.8"/>
      </g>
     </g>
     <g id="text_5">
      <text style="font-size: 13px; font-family: 'TeX Gyre Termes'; text-anchor: middle" x="335.906136" y="323.183594" transform="rotate(-0 335.906136 323.183594)">0.20</text>
     </g>
    </g>
    <g id="xtick_6">
     <g id="line2d_11">
      <path d="M 400.685227 307.305 
L 400.685227 15.12 
" clip-path="url(#p167122d4b7)" style="fill: none; stroke: #b0b0b0; stroke-width: 0.8; stroke-linecap: square"/>
     </g>
     <g id="line2d_12">
      <g>
       <use xlink:href="#m26b3ce979d" x="400.685227" y="307.305" style="stroke: #000000; stroke-width: 0.8"/>
      </g>
     </g>
     <g id="text_6">
      <text style="font-size: 13px; font-family: 'TeX Gyre Termes'; text-anchor: middle" x="400.685227" y="323.183594" transform="rotate(-0 400.685227 323.183594)">0.25</text>
     </g>
    </g>
    <g id="text_7">
     <text style="font-size: 16px; font-family: 'TeX Gyre Termes'; text-anchor: middle" x="238.7375" y="340.9325" transform="rotate(-0 238.7375 340.9325)">Delay [s]</text>
    </g>
   </g>
   <g id="matplotlib.axis_2">
    <g id="ytick_1">
     <g id="line2d_13">
      <path d="M 60.595 285.456519 
L 416.88 285.456519 
" clip-path="url(#p167122d4b7)" style="fill: none; stroke: #b0b0b0; stroke-width: 0.8; stroke-linecap: square"/>
     </g>
     <g id="line2d_14">
      <defs>
       <path id="m5107b2e673" d="M 0 0 
L -3.5 0 
" style="stroke: #000000; stroke-width: 0.8"/>
      </defs>
      <g>
       <use xlink:href="#m5107b2e673" x="60.595" y="285.456519" style="stroke: #000000; stroke-width: 0.8"/>
      </g>
     </g>
     <g id="text_8">
      <text style="font-size: 13px; font-family: 'TeX Gyre Termes'; text-anchor: end" x="53.595" y="289.895816" transform="rotate(-0 53.595 289.895816)">100</text>
     </g>
    </g>
    <g id="ytick_2">
     <g id="line2d_15">
      <path d="M 60.595 250.246464 
L 416.88 250.246464 
" clip-path="url(#p167122d4b7)" style="fill: none; stroke: #b0b0b0; stroke-width: 0.8; stroke-linecap: square"/>
     </g>
     <g id="line2d_16">
      <g>
       <use xlink:href="#m5107b2e673" x="60.595" y="250.246464" style="stroke: #000000; stroke-width: 0.8"/>
      </g>
     </g>
     <g id="text_9">
      <text style="font-size: 13px; font-family: 'TeX Gyre Termes'; text-anchor: end" x="53.595" y="254.685761" transform="rotate(-0 53.595 254.685761)">125</text>
     </g>
    </g>
    <g id="ytick_3">
     <g id="line2d_17">
      <path d="M 60.595 215.036409 
L 416.88 215.036409 
" clip-path="url(#p167122d4b7)" style="fill: none; stroke: #b0b0b0; stroke-width: 0.8; stroke-linecap: square"/>
     </g>
     <g id="line2d_18">
      <g>
       <use xlink:href="#m5107b2e673" x="60.595" y="215.036409" style="stroke: #000000; stroke-width: 0.8"/>
      </g>
     </g>
     <g id="text_10">
      <text style="font-size: 13px; font-family: 'TeX Gyre Termes'; text-anchor: end" x="53.595" y="219.475706" transform="rotate(-0 53.595 219.475706)">150</text>
     </g>
    </g>
    <g id="ytick_4">
     <g id="line2d_19">
      <path d="M 60.595 179.826353 
L 416.88 179.826353 
" clip-path="url(#p167122d4b7)" style="fill: none; stroke: #b0b0b0; stroke-width: 0.8; stroke-linecap: square"/>
     </g>
     <g id="line2d_20">
      <g>
       <use xlink:href="#m5107b2e673" x="60.595" y="179.826353" style="stroke: #000000; stroke-width: 0.8"/>
      </g>
     </g>
     <g id="text_11">
      <text style="font-size: 13px; font-family: 'TeX Gyre Termes'; text-anchor: end" x="53.595" y="184.26565" transform="rotate(-0 53.595 184.26565)">175</text>
     </g>
    </g>
    <g id="ytick_5">
     <g id="line2d_21">
      <path d="M 60.595 144.616298 
L 416.88 144.616298 
" clip-path="url(#p167122d4b7)" style="fill: none; stroke: #b0b0b0; stroke-width: 0.8; stroke-linecap: square"/>
     </g>
     <g id="line2d_22">
      <g>
       <use xlink:href="#m5107b2e673" x="60.595" y="144.616298" style="stroke: #000000; stroke-width: 0.8"/>
      </g>
     </g>
     <g id="text_12">
      <text style="font-size: 13px; font-family: 'TeX Gyre Termes'; text-anchor: end" x="53.595" y="149.055595" transform="rotate(-0 53.595 149.055595)">200</text>
     </g>
    </g>
    <g id="ytick_6">
     <g id="line2d_23">
      <path d="M 60.595 109.406243 
L 416.88 109.406243 
" clip-path="url(#p167122d4b7)" style="fill: none; stroke: #b0b0b0; stroke-width: 0.8; stroke-linecap: square"/>
     </g>
     <g id="line2d_24">
      <g>
       <use xlink:href="#m5107b2e673" x="60.595" y="109.406243" style="stroke: #000000; stroke-width: 0.8"/>
      </g>
     </g>
     <g id="text_13">
      <text style="font-size: 13px; font-family: 'TeX Gyre Termes'; text-anchor: end" x="53.595" y="113.845539" transform="rotate(-0 53.595 113.845539)">225</text>
     </g>
    </g>
    <g id="ytick_7">
     <g id="line2d_25">
      <path d="M 60.595 74.196187 
L 416.88 74.196187 
" clip-path="url(#p167122d4b7)" style="fill: none; stroke: #b0b0b0; stroke-width: 0.8; stroke-linecap: square"/>
     </g>
     <g id="line2d_26">
      <g>
       <use xlink:href="#m5107b2e673" x="60.595" y="74.196187" style="stroke: #000000; stroke-width: 0.8"/>
      </g>
     </g>
     <g id="text_14">
      <text style="font-size: 13px; font-family: 'TeX Gyre Termes'; text-anchor: end" x="53.595" y="78.635484" transform="rotate(-0 53.595 78.635484)">250</text>
     </g>
    </g>
    <g id="ytick_8">
     <g id="line2d_27">
      <path d="M 60.595 38.986132 
L 416.88 38.986132 
" clip-path="url(#p167122d4b7)" style="fill: none; stroke: #b0b0b0; stroke-width: 0.8; stroke-linecap: square"/>
     </g>
     <g id="line2d_28">
      <g>
       <use xlink:href="#m5107b2e673" x="60.595" y="38.986132" style="stroke: #000000; stroke-width: 0.8"/>
      </g>
     </g>
     <g id="text_15">
      <text style="font-size: 13px; font-family: 'TeX Gyre Termes'; text-anchor: end" x="53.595" y="43.425429" transform="rotate(-0 53.595 43.425429)">275</text>
     </g>
    </g>
    <g id="text_16">
     <text style="font-size: 16px; font-family: 'TeX Gyre Termes'; text-anchor: middle" x="26.6075" y="161.2125" transform="rotate(-90 26.6075 161.2125)">Objective Function Value</text>
    </g>
   </g>
   <g id="line2d_29">
    <path d="M 76.789773 294.023864 
L 80.061444 41.03189 
L 83.333115 69.145155 
L 86.604787 28.401136 
L 89.876458 37.121925 
L 93.148129 35.966096 
L 96.4198 43.931062 
L 99.691472 53.331102 
L 102.963143 48.166951 
L 106.234814 49.699721 
L 109.506485 51.656365 
L 112.778157 55.024014 
L 116.049828 56.11057 
L 119.321499 52.363105 
L 122.59317 50.234676 
L 125.864842 50.81908 
L 129.136513 52.835994 
L 132.408184 53.416454 
L 135.679855 51.867701 
L 138.951527 51.155591 
L 142.223198 52.584579 
L 145.494869 54.585451 
L 148.76654 54.987945 
L 152.038212 53.797479 
L 155.309883 53.144705 
L 158.581554 54.001153 
L 161.853225 55.085946 
L 165.124897 54.801267 
L 168.396568 53.487001 
L 171.668239 52.94947 
L 174.93991 53.672321 
L 178.211582 54.427535 
L 181.483253 54.063563 
L 184.754924 53.091958 
L 188.026596 52.880963 
L 191.298267 53.55836 
L 194.569938 54.006959 
L 197.841609 53.490392 
L 201.113281 52.666237 
L 204.384952 52.570256 
L 207.656623 53.162844 
L 210.928294 53.409351 
L 214.199966 52.824488 
L 217.471637 52.160654 
L 220.743308 52.283671 
L 224.014979 52.945068 
L 227.286651 53.123023 
L 230.558322 52.527516 
L 233.829993 52.027303 
L 237.101664 52.320615 
L 240.373336 53.00197 
L 243.645007 53.096581 
L 246.916678 52.543939 
L 250.188349 52.165057 
L 253.460021 52.561516 
L 256.731692 53.201597 
L 260.003363 53.279696 
L 263.275034 52.805703 
L 266.546706 52.525946 
L 269.818377 52.943837 
L 273.090048 53.496234 
L 276.361719 53.536255 
L 279.633391 53.097599 
L 282.905062 52.906462 
L 286.176733 53.27148 
L 289.448404 53.732603 
L 292.720076 53.63797 
L 295.991747 53.197488 
L 299.263418 53.05334 
L 302.53509 53.411941 
L 305.806761 53.639376 
L 309.078432 53.403535 
L 312.350103 53.011954 
L 315.621775 52.982151 
L 318.893446 53.306292 
L 322.165117 53.444963 
L 325.436788 53.105222 
L 328.70846 52.748261 
L 331.980131 52.785873 
L 335.251802 53.130093 
L 338.523473 53.206455 
L 341.795145 52.850979 
L 345.066816 52.49195 
L 348.338487 52.6026 
L 351.610158 52.977777 
L 354.88183 53.072913 
L 358.153501 52.676397 
L 361.425172 52.386588 
L 364.696843 52.584214 
L 367.968515 52.988809 
L 371.240186 53.068904 
L 374.511857 52.713522 
L 377.783528 52.514324 
L 381.0552 52.74327 
L 384.326871 53.106651 
L 387.598542 53.140994 
L 390.870213 52.896861 
L 394.141885 52.782637 
L 397.413556 53.022543 
L 400.685227 53.302088 
" clip-path="url(#p167122d4b7)" style="fill: none; stroke: #1f77b4; stroke-width: 1.5; stroke-linecap: square"/>
   </g>
   <g id="patch_3">
    <path d="M 60.595 307.305 
L 60.595 15.12 
" style="fill: none; stroke: #000000; stroke-width: 0.8; stroke-linejoin: miter; stroke-linecap: square"/>
   </g>
   <g id="patch_4">
    <path d="M 416.88 307.305 
L 416.88 15.12 
" style="fill: none; stroke: #000000; stroke-width: 0.8; stroke-linejoin: miter; stroke-linecap: square"/>
   </g>
   <g id="patch_5">
    <path d="M 60.595 307.305 
L 416.88 307.305 
" style="fill: none; stroke: #000000; stroke-width: 0.8; stroke-linejoin: miter; stroke-linecap: square"/>
   </g>
   <g id="patch_6">
    <path d="M 60.595 15.12 
L 416.88 15.12 
" style="fill: none; stroke: #000000; stroke-width: 0.8; stroke-linejoin: miter; stroke-linecap: square"/>
   </g>
  </g>
 </g>
 <defs>
  <clipPath id="p167122d4b7">
   <rect x="60.595" y="15.12" width="356.285" height="292.185"/>
  </clipPath>
 </defs>
</svg>
